<?xml version="1.0" encoding="UTF-8"?> <svg xmlns="http://www.w3.org/2000/svg" width="24" height="24" viewBox="0 0 24 24" fill="none"><path d="M24 12C24 18.6274 18.6274 24 12 24C5.37258 24 0 18.6274 0 12C0 5.37258 5.37258 0 12 0C18.6274 0 24 5.37258 24 12Z" fill="white"></path><path fill-rule="evenodd" clip-rule="evenodd" d="M12 22C17.5228 22 22 17.5228 22 12C22 6.47715 17.5228 2 12 2C6.47715 2 2 6.47715 2 12C2 17.5228 6.47715 22 12 22ZM12 24C18.6274 24 24 18.6274 24 12C24 5.37258 18.6274 0 12 0C5.37258 0 0 5.37258 0 12C0 18.6274 5.37258 24 12 24Z" fill="#E72931"></path><path d="M7.62988 16H6.12109V11.8691C6.12109 11.7845 6.12109 11.6836 6.12109 11.5664C6.12435 11.446 6.1276 11.3223 6.13086 11.1953C6.13737 11.0651 6.14225 10.9349 6.14551 10.8047C6.15202 10.6745 6.1569 10.5557 6.16016 10.4482C6.14388 10.4678 6.11621 10.4971 6.07715 10.5361C6.03809 10.5752 5.99414 10.6191 5.94531 10.668C5.89648 10.7135 5.84603 10.7607 5.79395 10.8096C5.74186 10.8584 5.69141 10.9023 5.64258 10.9414L4.82227 11.6006L4.08984 10.6924L6.38965 8.86133H7.62988V16Z" fill="black"></path><path d="M11.9072 8.76855C12.2035 8.76855 12.4834 8.80436 12.7471 8.87598C13.0107 8.94759 13.2419 9.05501 13.4404 9.19824C13.639 9.34147 13.7969 9.52051 13.9141 9.73535C14.0312 9.9502 14.0898 10.2025 14.0898 10.4922C14.0898 10.707 14.0573 10.9023 13.9922 11.0781C13.9271 11.2507 13.8376 11.4085 13.7236 11.5518C13.6097 11.6917 13.4746 11.8171 13.3184 11.9277C13.1621 12.0384 12.9928 12.1393 12.8105 12.2305C12.9993 12.3314 13.1833 12.4437 13.3623 12.5674C13.5446 12.6911 13.7057 12.8311 13.8457 12.9873C13.9857 13.1403 14.098 13.3128 14.1826 13.5049C14.2673 13.6969 14.3096 13.9118 14.3096 14.1494C14.3096 14.4456 14.251 14.7142 14.1338 14.9551C14.0166 15.196 13.8522 15.401 13.6406 15.5703C13.429 15.7396 13.1751 15.8698 12.8789 15.9609C12.5859 16.0521 12.262 16.0977 11.9072 16.0977C11.5231 16.0977 11.1813 16.0537 10.8818 15.9658C10.5824 15.8779 10.3301 15.7526 10.125 15.5898C9.91992 15.4271 9.76367 15.2269 9.65625 14.9893C9.55208 14.7516 9.5 14.4847 9.5 14.1885C9.5 13.9443 9.53581 13.7246 9.60742 13.5293C9.67904 13.334 9.77669 13.1582 9.90039 13.002C10.0241 12.8457 10.1689 12.7074 10.335 12.5869C10.501 12.4665 10.6784 12.3607 10.8672 12.2695C10.7077 12.1686 10.5579 12.0596 10.418 11.9424C10.278 11.8219 10.1559 11.6901 10.0518 11.5469C9.95085 11.4004 9.86947 11.2393 9.80762 11.0635C9.74902 10.8877 9.71973 10.694 9.71973 10.4824C9.71973 10.1992 9.77832 9.95182 9.89551 9.74023C10.016 9.52539 10.1771 9.34635 10.3789 9.20312C10.5807 9.05664 10.8135 8.94759 11.0771 8.87598C11.3408 8.80436 11.6175 8.76855 11.9072 8.76855ZM10.8965 14.1006C10.8965 14.2308 10.9176 14.3512 10.96 14.4619C11.0023 14.5693 11.0641 14.6621 11.1455 14.7402C11.2301 14.8184 11.3343 14.8802 11.458 14.9258C11.5817 14.9681 11.7249 14.9893 11.8877 14.9893C12.2295 14.9893 12.485 14.9095 12.6543 14.75C12.8236 14.5872 12.9082 14.374 12.9082 14.1104C12.9082 13.9736 12.8789 13.8516 12.8203 13.7441C12.765 13.6335 12.6917 13.5326 12.6006 13.4414C12.5127 13.347 12.4118 13.2607 12.2979 13.1826C12.1839 13.1045 12.07 13.0296 11.9561 12.958L11.8486 12.8896C11.7054 12.9613 11.5752 13.0394 11.458 13.124C11.3408 13.2054 11.2399 13.2965 11.1553 13.3975C11.0739 13.4951 11.0104 13.6025 10.9648 13.7197C10.9193 13.8369 10.8965 13.9639 10.8965 14.1006ZM11.8975 9.87207C11.79 9.87207 11.6891 9.88835 11.5947 9.9209C11.5036 9.95345 11.4238 10.0007 11.3555 10.0625C11.2904 10.1243 11.2383 10.2008 11.1992 10.292C11.1602 10.3831 11.1406 10.4857 11.1406 10.5996C11.1406 10.7363 11.1602 10.8551 11.1992 10.9561C11.2415 11.0537 11.2969 11.1416 11.3652 11.2197C11.4368 11.2946 11.5182 11.363 11.6094 11.4248C11.7038 11.4834 11.8031 11.542 11.9072 11.6006C12.0081 11.5485 12.1042 11.4915 12.1953 11.4297C12.2865 11.3678 12.3662 11.2979 12.4346 11.2197C12.5062 11.1383 12.5632 11.0472 12.6055 10.9463C12.6478 10.8454 12.6689 10.7298 12.6689 10.5996C12.6689 10.4857 12.6494 10.3831 12.6104 10.292C12.5713 10.2008 12.5176 10.1243 12.4492 10.0625C12.3809 10.0007 12.2995 9.95345 12.2051 9.9209C12.1107 9.88835 12.0081 9.87207 11.8975 9.87207Z" fill="black"></path><path d="M16.9756 13.3047H15.1836V12.2354H16.9756V10.4336H18.0449V12.2354H19.832V13.3047H18.0449V15.082H16.9756V13.3047Z" fill="black"></path></svg> 