<?xml version="1.0" encoding="UTF-8"?> <svg xmlns="http://www.w3.org/2000/svg" width="24" height="24" viewBox="0 0 24 24" fill="none"><rect width="24" height="24" rx="12" fill="#283477"></rect><path d="M6.20777 7.00941V8.6775C6.20664 10.6858 6.73822 12.6584 7.74828 14.3941C8.75833 16.1299 10.2107 17.5667 11.9573 18.5579C13.7039 17.5667 15.1562 16.1299 16.1663 14.3941C17.1764 12.6584 17.7079 10.6858 17.7068 8.6775V7.00941C13.9483 5.94099 9.96633 5.94099 6.20777 7.00941ZM11.9573 19.6496L11.7302 19.5274C9.77013 18.4736 8.13239 16.9082 6.99129 14.9976C5.85018 13.0871 5.24841 10.9029 5.25 8.6775V6.29036L5.59206 6.18992C9.74302 4.93669 14.1716 4.93669 18.3225 6.18992L18.666 6.29036V8.6775C18.6676 10.9031 18.0657 13.0874 16.9243 14.998C15.7829 16.9086 14.1448 18.4739 12.1844 19.5274L11.9573 19.6496Z" fill="white"></path><path d="M11.4783 13.5555L9.22363 11.2994L9.90048 10.6226L11.4783 12.2004L14.9732 8.70557L15.65 9.38386L11.4783 13.5555Z" fill="white"></path></svg> 