<?xml version="1.0" encoding="UTF-8"?> <svg xmlns="http://www.w3.org/2000/svg" width="105" height="24" viewBox="0 0 105 24" fill="none"><path d="M10.4606 0H0.307219C0.137739 0.000450871 0.000462469 0.134295 3.71886e-08 0.299538V14.6987C-0.000223207 17.1655 1.00467 19.5313 2.79359 21.2757C4.58251 23.02 7.00891 24 9.53894 24H10.4648C15.7317 23.9977 20 19.8339 19.9995 14.6987V9.30046C19.9995 6.83383 18.9945 4.46822 17.2056 2.72404C15.4167 0.979867 12.9905 0 10.4606 0Z" fill="#2E008B"></path><path d="M16.9366 14.8536C16.9366 18.3553 14.2979 20.9995 10.1938 20.9995C5.33131 20.9995 3.05957 18.1887 3.05957 14.3292V9.6605C3.05957 5.80343 5.33215 2.99023 10.1938 2.99023C14.127 2.99023 15.9106 5.1822 16.6193 7.37334C16.7169 7.70735 16.5949 7.89774 16.3264 7.99293L13.6877 8.75532C13.3695 8.85052 13.1986 8.75532 13.0985 8.44594C12.6827 7.13289 11.8031 6.42056 10.1913 6.42056C7.699 6.42056 6.86824 7.85014 6.86824 9.7795V14.211C6.86824 16.1404 7.699 17.57 10.1913 17.57C12.2433 17.57 13.3182 16.641 13.3182 14.6156V14.0411H10.5843C10.3646 14.0411 10.2182 13.9222 10.2182 13.6604V11.2066C10.2182 10.9678 10.3646 10.825 10.5843 10.825H16.5461C16.7901 10.825 16.9366 10.944 16.9366 11.1828V14.8536Z" fill="white"></path><path d="M34.9353 8.18481C35.0094 8.46263 34.9168 8.62932 34.6945 8.7034L32.5646 9.33312C32.3053 9.40721 32.1757 9.33312 32.0831 9.07382C31.7497 7.98107 31.0459 7.40692 29.7309 7.40692C27.7306 7.40692 27.0453 8.59227 27.0453 10.1851V13.8523C27.0453 15.4451 27.7121 16.6305 29.7309 16.6305C31.3792 16.6305 32.2497 15.8711 32.2497 14.1857V13.7041H30.0828C29.8976 13.7041 29.7864 13.6115 29.7864 13.3893V11.3519C29.7679 11.2038 29.879 11.0556 30.0457 11.0371C30.0642 11.0371 30.0828 11.0371 30.0828 11.0371H34.8983C35.102 11.0371 35.2131 11.1297 35.2131 11.3334V14.3709C35.2131 17.2602 33.0832 19.4457 29.7679 19.4457C25.8414 19.4457 24.0078 17.112 24.0078 13.9264V10.0555C24.0078 6.86981 25.8414 4.53613 29.7679 4.53613C32.935 4.55465 34.3612 6.36973 34.9353 8.18481ZM45.7332 11.7964V18.9086C45.7517 19.0567 45.622 19.1864 45.4739 19.2049C45.4554 19.2049 45.4554 19.2049 45.4368 19.2049H43.2698C43.1217 19.2234 42.9735 19.1123 42.955 18.9456C42.955 18.9271 42.955 18.9086 42.955 18.9086V17.7417C42.3253 18.7975 41.1955 19.4457 39.9546 19.4272C37.8987 19.4272 36.5837 18.1122 36.5837 16.0748C36.5837 14.0931 37.8246 12.9262 40.8621 12.704C41.5103 12.6484 42.1771 12.6484 42.8439 12.6855V11.889C42.8439 10.8333 42.2882 10.4074 41.3436 10.4074C40.3805 10.4074 40.1027 10.7963 39.8434 11.4075C39.7508 11.6483 39.6582 11.6853 39.4545 11.6298L37.2875 11.0741C37.0653 11.0186 37.0467 10.8889 37.0838 10.7407C37.3801 9.18495 38.8618 8.03664 41.4548 8.03664C44.1959 8.05516 45.7332 9.37017 45.7332 11.7964ZM42.8439 15.5377V14.5005C42.2697 14.482 41.677 14.5005 41.1029 14.5561C39.9916 14.6857 39.4174 15.0377 39.4174 15.8711C39.4174 16.6305 39.936 17.0565 40.7695 17.0565C41.7326 17.0565 42.492 16.5379 42.8439 15.5377ZM53.5491 8.05516C54.9197 8.05516 55.8272 8.87009 56.2532 10.0369C57.0681 8.85157 58.0498 8.05516 59.4203 8.05516C61.328 8.05516 62.4208 9.5739 62.4208 11.8335V18.9086C62.4208 19.0938 62.2541 19.2049 62.0689 19.2049H59.8093C59.6055 19.2049 59.4574 19.0938 59.4574 18.9086V12.3521C59.4574 11.3705 59.0314 10.7778 58.2535 10.7778C57.4386 10.7778 56.8459 11.4445 56.5681 12.4632V18.9086C56.5866 19.0567 56.4569 19.1864 56.3088 19.2049H56.2902H53.8455C53.6602 19.2049 53.5862 19.0938 53.5862 18.9086V12.3521C53.5862 11.3705 53.1416 10.7778 52.3823 10.7778C51.5488 10.7778 50.9561 11.4816 50.6968 12.5002V18.9271C50.7154 19.0753 50.6042 19.2049 50.4561 19.2234C50.4375 19.2234 50.419 19.2234 50.4005 19.2234H48.0113C47.8631 19.242 47.7335 19.1308 47.7149 18.9827C47.7149 18.9641 47.7149 18.9456 47.7149 18.9271V8.59227C47.7149 8.4441 47.8446 8.31446 47.9928 8.31446H48.0113H50.3079C50.4561 8.29594 50.5857 8.40707 50.6042 8.57376V8.59227V9.8332C51.234 8.90714 52.1785 8.05516 53.5491 8.05516ZM74.8114 8.29594C74.867 8.55523 74.7929 8.74044 74.5521 8.81453L72.4593 9.42573C72.2 9.49981 72.0703 9.40721 71.9777 9.16643C71.6814 8.18481 71.1628 7.3884 69.7181 7.3884C67.9216 7.3884 67.3474 8.57375 67.3474 10.1666V13.8338C67.3474 15.4266 67.9956 16.612 69.7181 16.612C71.2554 16.612 71.848 15.7415 72.0888 14.6672C72.1444 14.4265 72.3111 14.3153 72.5704 14.4079L74.6633 15.0747C74.904 15.1488 74.9781 15.334 74.9226 15.5933C74.4225 17.7232 72.8852 19.4642 69.6996 19.4642C66.1065 19.4642 64.3099 17.1305 64.3099 13.9449V10.074C64.3099 6.88832 66.162 4.55466 69.6996 4.55466C72.8112 4.55466 74.2743 6.20304 74.8114 8.29594ZM85.313 11.7964V18.9086C85.3315 19.0567 85.2018 19.1864 85.0537 19.2049C85.0351 19.2049 85.0351 19.2049 85.0166 19.2049H82.8496C82.7015 19.2234 82.5533 19.1123 82.5348 18.9456C82.5348 18.9271 82.5348 18.9086 82.5348 18.9086V17.7417C81.9051 18.7975 80.7753 19.4457 79.5343 19.4272C77.4785 19.4272 76.1635 18.1122 76.1635 16.0748C76.1635 14.0931 77.4044 12.9262 80.4419 12.704C81.0901 12.6484 81.7569 12.6484 82.4236 12.6855V11.889C82.4236 10.8333 81.868 10.4074 80.9234 10.4074C79.9603 10.4074 79.6825 10.7963 79.4232 11.4075C79.3306 11.6483 79.238 11.6853 79.0343 11.6298L76.8673 11.0741C76.645 11.0186 76.6265 10.8889 76.6636 10.7407C76.9599 9.18495 78.4416 8.03664 81.0346 8.03664C83.7757 8.05516 85.313 9.37017 85.313 11.7964ZM82.4051 15.5377V14.5005C81.831 14.482 81.2383 14.5005 80.6641 14.5561C79.5529 14.6857 78.9787 15.0377 78.9787 15.8711C78.9787 16.6305 79.4973 17.0565 80.3308 17.0565C81.3124 17.0565 82.0532 16.5379 82.4051 15.5377ZM93.7401 8.49967V10.6111C93.7401 10.8704 93.6475 10.963 93.3882 10.963H93.0733C91.499 10.963 90.573 11.6668 90.2581 12.8521V18.9271C90.2766 19.0753 90.1655 19.2049 90.0173 19.2234H89.9988H87.517C87.3688 19.2234 87.2577 19.0938 87.2577 18.9456C87.2577 18.9456 87.2577 18.9456 87.2577 18.9271V8.57376C87.2577 8.42559 87.3688 8.29594 87.4985 8.29594C87.517 8.29594 87.5355 8.29594 87.5355 8.29594H89.7766C90.0173 8.29594 90.0729 8.4441 90.0729 8.6108V10.074C90.5915 9.11087 91.5546 8.16629 93.24 8.16629C93.666 8.16629 93.7401 8.22185 93.7401 8.49967ZM97.611 14.6672V15.0747C97.611 16.223 98.2037 17.0194 99.5928 17.0194C100.945 17.0194 101.334 16.5008 101.686 15.8526C101.871 15.5562 101.945 15.5192 102.26 15.6488L103.816 16.4453C104.13 16.612 104.149 16.7601 104.019 17.0565C103.353 18.5752 101.667 19.4457 99.5928 19.4457C96.4442 19.4457 94.7773 17.5751 94.7773 15.0191V12.5002C94.7773 10.0184 96.3331 8.07368 99.5557 8.07368C102.63 8.07368 104.13 10.0184 104.13 12.4447V14.1857C104.13 14.482 104.038 14.6858 103.612 14.6858L97.611 14.6672ZM97.611 12.3521V12.7225H101.408V12.3521C101.408 11.2964 100.815 10.4629 99.5187 10.4629C98.2222 10.4629 97.611 11.2964 97.611 12.3521Z" fill="#1A1A1A"></path></svg> 