<?xml version="1.0" encoding="UTF-8"?> <svg xmlns="http://www.w3.org/2000/svg" xmlns:xlink="http://www.w3.org/1999/xlink" version="1.1" id="Layer_1" x="0px" y="0px" viewBox="0 0 784.3 242" style="enable-background:new 0 0 784.3 242;" xml:space="preserve"> <style type="text/css"> .st0{fill:#0A2240;} .st1{fill:#FF5F00;} .st2{fill:#FF8300;} </style> <g> <g> <path class="st0" d="M325.9,28.4c21.2,0,31.8,10.4,31.8,10.4l-10.2,18.9c0,0-7.4-7.4-19.7-7.4c-15.3,0-21.5,9.4-21.5,20 c0,12.5,8.2,21.4,20.7,21.4c7.7,0,13.6-4,14.4-5V83H331V65.3h30.9v46.2h-19.7V108c0-1.3,0.1-2.4,0.2-2.6H342 c-1,1.4-7.6,7.6-20.7,7.6c-22.2,0-40.4-16.6-40.4-42.1C280.9,46.8,298.6,28.4,325.9,28.4z"></path> <path class="st0" d="M463,31.4h34.9c17.6,0,29.6,9.5,29.6,26.4c0,9.2-4.7,17.8-12.2,22.4v0.2c0.2,0.4,1.8,2.5,3.5,5.5l14,25.7 h-26.4L494,86.4h-6.7v25.1H463V31.4z M494.4,67.7c5.4,0,8.5-3.3,8.5-8.5c0-5-2.1-8.3-9.4-8.3h-6.3v16.8H494.4z"></path> <path class="st0" d="M538.7,31.4h32.5c24.8,0,40.6,14.7,40.6,39.9s-15.8,40.3-40.6,40.3h-32.5V31.4z M569.7,91.8 c10.9,0,17.3-7,17.3-20.5s-6.7-20.2-17.3-20.2H563v40.7H569.7z"></path> <path class="st0" d="M712.7,31.4h23.1l19.7,32.9c3.4,5.5,5.7,12.2,5.7,12.2h0.4c0,0-0.9-7.2-0.9-12.2V31.4h23.4v80.2h-23.6 l-19.9-34.4c-2.9-4.8-5.7-12.1-5.7-12.1h-0.4c0,0,0.9,7.1,0.9,12.1v34.4h-22.9V31.4H712.7z"></path> <path class="st0" d="M287,130h26.5l10.1,32.3c1.6,5.2,3.4,12.9,3.4,12.9h0.4c0,0,1.7-7.7,3.4-12.9l10.1-32.3h26.4l5.9,80.2h-22.5 l-2.2-33.4c-0.4-6.1,0-12.9,0-12.9h-0.4c0,0-2,7.9-3.7,12.9l-7.3,22.8h-19.5l-7.4-22.8c-1.6-5-3.6-12.9-3.6-12.9h-0.4 c0,0,0.3,6.8-0.1,12.9l-2.1,33.4h-22.8L287,130z"></path> <path class="st0" d="M421.8,128.1c26.3,0,43.9,18,43.9,41.8c0,24.4-17.6,42.8-43.9,42.8s-43.9-18.4-43.9-42.8 C377.8,146,395.5,128.1,421.8,128.1z M421.8,190.7c10.8,0,18.5-8.5,18.5-20.9c0-11.9-7.8-19.9-18.5-19.9c-10.8,0-18.5,8-18.5,19.9 C403.2,182.3,411,190.7,421.8,190.7z"></path> <path class="st0" d="M412.1,29.8c26.3,0,43.9,18,43.9,41.8c0,24.4-17.6,42.8-43.9,42.8S368.2,96,368.2,71.6 C368.2,47.8,385.8,29.8,412.1,29.8z M412.1,92.5c10.8,0,18.5-8.5,18.5-20.9c0-11.9-7.8-19.9-18.5-19.9c-10.8,0-18.5,8-18.5,19.9 C393.6,84,401.4,92.5,412.1,92.5z"></path> <path class="st0" d="M661.6,29.8c26.3,0,43.9,18,43.9,41.8c0,24.4-17.6,42.8-43.9,42.8c-26.3,0-43.9-18.4-43.9-42.8 C617.7,47.8,635.3,29.8,661.6,29.8z M661.6,92.5c10.8,0,18.5-8.5,18.5-20.9c0-11.9-7.8-19.9-18.5-19.9c-10.8,0-18.5,8-18.5,19.9 C643.1,84,650.8,92.5,661.6,92.5z"></path> <path class="st0" d="M514.4,128.1c26.3,0,43.9,18,43.9,41.8c0,24.4-17.6,42.8-43.9,42.8c-26.3,0-43.9-18.4-43.9-42.8 C470.4,146,488,128.1,514.4,128.1z M514.4,190.7c10.8,0,18.5-8.5,18.5-20.9c0-11.9-7.8-19.9-18.5-19.9c-10.8,0-18.5,8-18.5,19.9 C495.8,182.3,503.6,190.7,514.4,190.7z"></path> <path class="st0" d="M566.5,130H599c24.8,0,40.6,14.7,40.6,39.9s-15.8,40.3-40.6,40.3h-32.5V130z M597.4,190.5 c10.9,0,17.3-7,17.3-20.5s-6.7-20.2-17.3-20.2h-6.7v40.7H597.4z"></path> <path class="st0" d="M661,178.5L634.5,130h26l7.7,16.6c2.2,5,4.6,12.1,4.6,12.1h0.4c0,0,2.4-7.1,4.7-12.1l7.5-16.6h26.1L685,178.5 v31.7h-24V178.5z"></path> </g> <g> <ellipse transform="matrix(3.327794e-02 -0.9994 0.9994 3.327794e-02 -3.2714 238.6179)" class="st1" cx="121.7" cy="121" rx="53.6" ry="53.6"></ellipse> <polygon class="st1" points="121.7,53 145.9,28.8 145.9,0 97.5,0 97.5,28.8 "></polygon> <polygon class="st2" points="88.3,62.2 96.9,29.4 82.5,4 40.5,28.2 54.9,53.6 "></polygon> <polygon class="st1" points="63.5,87 54.3,53.6 28.9,39.2 4.7,81.2 30.1,95.6 "></polygon> <polygon class="st2" points="54.3,121 30.1,96.8 0.7,96.8 0.7,145.2 30.1,145.2 "></polygon> <polygon class="st1" points="63.5,154.4 30.1,145.8 4.7,160.2 28.9,202.2 54.3,187.8 "></polygon> <polygon class="st2" points="88.3,179.8 54.9,188.4 40.5,213.8 82.5,238 96.9,212.6 "></polygon> <polygon class="st1" points="121.7,188.4 97.5,212.6 97.5,242 145.9,242 145.9,212.6 "></polygon> <polygon class="st2" points="155.7,179.8 147.1,212.6 161.5,238 203.5,213.8 189.1,188.4 "></polygon> <polygon class="st1" points="180.5,155 189.1,187.8 214.5,202.8 239.3,160.8 213.9,145.8 "></polygon> <polygon class="st2" points="189.7,121 213.9,145.2 243.3,145.2 243.3,96.8 213.9,96.8 "></polygon> <polygon class="st1" points="180.5,87 213.9,95.6 239.3,81.2 214.5,39.2 189.7,53.6 "></polygon> <polygon class="st2" points="155.7,62.2 189.1,53.6 203.5,28.2 161.5,4 147.1,29.4 "></polygon> </g> </g> </svg> 